<mxfile host="65bd71144e">
    <diagram id="EeVyq1q6LbAbWxB8sMx1" name="Page-1">
        <mxGraphModel dx="728" dy="787" grid="1" gridSize="10" guides="1" tooltips="1" connect="1" arrows="1" fold="1" page="1" pageScale="1" pageWidth="850" pageHeight="1100" math="0" shadow="0">
            <root>
                <mxCell id="0"/>
                <mxCell id="1" parent="0"/>
                <mxCell id="7" style="edgeStyle=orthogonalEdgeStyle;html=1;exitX=0.5;exitY=0;exitDx=0;exitDy=0;entryX=0.5;entryY=1;entryDx=0;entryDy=0;" edge="1" parent="1" source="4" target="3">
                    <mxGeometry relative="1" as="geometry"/>
                </mxCell>
                <mxCell id="8" style="edgeStyle=elbowEdgeStyle;html=1;exitX=0.5;exitY=0;exitDx=0;exitDy=0;" edge="1" parent="1" source="5" target="3">
                    <mxGeometry relative="1" as="geometry"/>
                </mxCell>
                <mxCell id="3" value="RSA_Arduino" style="swimlane;whiteSpace=wrap;html=1;" vertex="1" parent="1">
                    <mxGeometry x="270" y="10" width="420" height="380" as="geometry"/>
                </mxCell>
                <mxCell id="30" value="" style="edgeStyle=elbowEdgeStyle;html=1;" edge="1" parent="3" source="26" target="27">
                    <mxGeometry relative="1" as="geometry"/>
                </mxCell>
                <mxCell id="26" value="&lt;div style=&quot;color: rgb(248, 248, 242); background-color: rgb(40, 42, 54); font-family: Consolas, &amp;quot;Courier New&amp;quot;, monospace; font-size: 14px; line-height: 19px;&quot;&gt;&lt;span style=&quot;color: #8be9fd;font-style: italic;&quot;&gt;uint32_t&lt;/span&gt; &lt;span style=&quot;color: #50fa7b;&quot;&gt;prime_gen&lt;/span&gt;(&lt;span style=&quot;color: #8be9fd;font-style: italic;&quot;&gt;uint32_t&lt;/span&gt; &lt;span style=&quot;color: #ffb86c;font-style: italic;&quot;&gt;bits&lt;/span&gt;)&lt;/div&gt;" style="text;html=1;align=center;verticalAlign=middle;resizable=0;points=[];autosize=1;strokeColor=none;fillColor=none;" vertex="1" parent="3">
                    <mxGeometry y="30" width="280" height="30" as="geometry"/>
                </mxCell>
                <mxCell id="27" value="&lt;div style=&quot;color: rgb(248, 248, 242); background-color: rgb(40, 42, 54); font-family: Consolas, &amp;quot;Courier New&amp;quot;, monospace; font-size: 14px; line-height: 19px;&quot;&gt;&lt;span style=&quot;color: #8be9fd;font-style: italic;&quot;&gt;uint32_t&lt;/span&gt; &lt;span style=&quot;color: #50fa7b;&quot;&gt;multMod&lt;/span&gt;(&lt;span style=&quot;color: #8be9fd;font-style: italic;&quot;&gt;uint32_t&lt;/span&gt; &lt;span style=&quot;color: #ffb86c;font-style: italic;&quot;&gt;a&lt;/span&gt;, &lt;span style=&quot;color: #8be9fd;font-style: italic;&quot;&gt;uint32_t&lt;/span&gt; &lt;span style=&quot;color: #ffb86c;font-style: italic;&quot;&gt;b&lt;/span&gt;, &lt;span style=&quot;color: #8be9fd;font-style: italic;&quot;&gt;uint32_t&lt;/span&gt; &lt;span style=&quot;color: #ffb86c;font-style: italic;&quot;&gt;m&lt;/span&gt;)&lt;/div&gt;" style="text;html=1;align=center;verticalAlign=middle;resizable=0;points=[];autosize=1;strokeColor=none;fillColor=none;" vertex="1" parent="3">
                    <mxGeometry y="65" width="420" height="30" as="geometry"/>
                </mxCell>
                <mxCell id="28" value="&lt;div style=&quot;color: rgb(248, 248, 242); background-color: rgb(40, 42, 54); font-family: Consolas, &amp;quot;Courier New&amp;quot;, monospace; font-size: 14px; line-height: 19px;&quot;&gt;&lt;span style=&quot;color: #8be9fd;font-style: italic;&quot;&gt;uint32_t&lt;/span&gt; &lt;span style=&quot;color: #50fa7b;&quot;&gt;powMod&lt;/span&gt;(&lt;span style=&quot;color: #8be9fd;font-style: italic;&quot;&gt;uint32_t&lt;/span&gt; &lt;span style=&quot;color: #ffb86c;font-style: italic;&quot;&gt;a&lt;/span&gt;, &lt;span style=&quot;color: #8be9fd;font-style: italic;&quot;&gt;uint32_t&lt;/span&gt; &lt;span style=&quot;color: #ffb86c;font-style: italic;&quot;&gt;b&lt;/span&gt;, &lt;span style=&quot;color: #8be9fd;font-style: italic;&quot;&gt;uint32_t&lt;/span&gt; &lt;span style=&quot;color: #ffb86c;font-style: italic;&quot;&gt;m&lt;/span&gt;)&lt;/div&gt;" style="text;html=1;align=center;verticalAlign=middle;resizable=0;points=[];autosize=1;strokeColor=none;fillColor=none;" vertex="1" parent="3">
                    <mxGeometry y="95" width="420" height="30" as="geometry"/>
                </mxCell>
                <mxCell id="29" value="&lt;div style=&quot;color: rgb(248, 248, 242); background-color: rgb(40, 42, 54); font-family: Consolas, &amp;quot;Courier New&amp;quot;, monospace; font-size: 14px; line-height: 19px;&quot;&gt;&lt;span style=&quot;color: #8be9fd;font-style: italic;&quot;&gt;uint32_t&lt;/span&gt; &lt;span style=&quot;color: #50fa7b;&quot;&gt;encrypt&lt;/span&gt;(&lt;span style=&quot;color: #ff79c6;&quot;&gt;char&lt;/span&gt; &lt;span style=&quot;color: #ffb86c;font-style: italic;&quot;&gt;c&lt;/span&gt;, &lt;span style=&quot;color: #8be9fd;font-style: italic;&quot;&gt;uint32_t&lt;/span&gt; &lt;span style=&quot;color: #ffb86c;font-style: italic;&quot;&gt;e&lt;/span&gt;, &lt;span style=&quot;color: #8be9fd;font-style: italic;&quot;&gt;uint32_t&lt;/span&gt; &lt;span style=&quot;color: #ffb86c;font-style: italic;&quot;&gt;m&lt;/span&gt;)&lt;/div&gt;" style="text;html=1;align=center;verticalAlign=middle;resizable=0;points=[];autosize=1;strokeColor=none;fillColor=none;" vertex="1" parent="3">
                    <mxGeometry y="120" width="390" height="30" as="geometry"/>
                </mxCell>
                <mxCell id="31" value="&lt;div style=&quot;color: rgb(248, 248, 242); background-color: rgb(40, 42, 54); font-family: Consolas, &amp;quot;Courier New&amp;quot;, monospace; font-size: 14px; line-height: 19px;&quot;&gt;&lt;span style=&quot;color: #ff79c6;&quot;&gt;char&lt;/span&gt; &lt;span style=&quot;color: #50fa7b;&quot;&gt;decrypt&lt;/span&gt;(&lt;span style=&quot;color: #8be9fd;font-style: italic;&quot;&gt;uint32_t&lt;/span&gt; &lt;span style=&quot;color: #ffb86c;font-style: italic;&quot;&gt;x&lt;/span&gt;, &lt;span style=&quot;color: #8be9fd;font-style: italic;&quot;&gt;uint32_t&lt;/span&gt; &lt;span style=&quot;color: #ffb86c;font-style: italic;&quot;&gt;d&lt;/span&gt;, &lt;span style=&quot;color: #8be9fd;font-style: italic;&quot;&gt;uint32_t&lt;/span&gt; &lt;span style=&quot;color: #ffb86c;font-style: italic;&quot;&gt;n&lt;/span&gt;)&lt;/div&gt;" style="text;html=1;align=center;verticalAlign=middle;resizable=0;points=[];autosize=1;strokeColor=none;fillColor=none;" vertex="1" parent="3">
                    <mxGeometry y="150" width="390" height="30" as="geometry"/>
                </mxCell>
                <mxCell id="32" value="&lt;div style=&quot;color: rgb(248, 248, 242); background-color: rgb(40, 42, 54); font-family: Consolas, &amp;quot;Courier New&amp;quot;, monospace; font-size: 14px; line-height: 19px;&quot;&gt;&lt;span style=&quot;color: #ff79c6;&quot;&gt;void&lt;/span&gt; &lt;span style=&quot;color: #50fa7b;&quot;&gt;setup&lt;/span&gt;()&lt;/div&gt;" style="text;html=1;align=center;verticalAlign=middle;resizable=0;points=[];autosize=1;strokeColor=none;fillColor=none;" vertex="1" parent="3">
                    <mxGeometry y="180" width="120" height="30" as="geometry"/>
                </mxCell>
                <mxCell id="33" value="&lt;div style=&quot;color: rgb(248, 248, 242); background-color: rgb(40, 42, 54); font-family: Consolas, &amp;quot;Courier New&amp;quot;, monospace; font-size: 14px; line-height: 19px;&quot;&gt;std&lt;span style=&quot;color: #ff79c6;&quot;&gt;::&lt;/span&gt;&lt;span style=&quot;color: #8be9fd;&quot;&gt;vector&lt;/span&gt;&amp;lt;&lt;span style=&quot;color: #ff79c6;&quot;&gt;char&lt;/span&gt;&amp;gt; &lt;span style=&quot;color: #50fa7b;&quot;&gt;captureData&lt;/span&gt;()&lt;/div&gt;" style="text;html=1;align=center;verticalAlign=middle;resizable=0;points=[];autosize=1;strokeColor=none;fillColor=none;" vertex="1" parent="3">
                    <mxGeometry y="210" width="260" height="30" as="geometry"/>
                </mxCell>
                <mxCell id="34" value="&lt;div style=&quot;color: rgb(248, 248, 242); background-color: rgb(40, 42, 54); font-family: Consolas, &amp;quot;Courier New&amp;quot;, monospace; font-size: 14px; line-height: 19px;&quot;&gt;&lt;span style=&quot;color: #8be9fd;font-style: italic;&quot;&gt;uint32_t&lt;/span&gt; &lt;span style=&quot;color: #50fa7b;&quot;&gt;vectorToNumber&lt;/span&gt;&lt;/div&gt;" style="text;html=1;align=center;verticalAlign=middle;resizable=0;points=[];autosize=1;strokeColor=none;fillColor=none;" vertex="1" parent="3">
                    <mxGeometry y="240" width="200" height="30" as="geometry"/>
                </mxCell>
                <mxCell id="35" value="&lt;div style=&quot;color: rgb(248, 248, 242); background-color: rgb(40, 42, 54); font-family: Consolas, &amp;quot;Courier New&amp;quot;, monospace; font-size: 14px; line-height: 19px;&quot;&gt;std&lt;span style=&quot;color: #ff79c6;&quot;&gt;::&lt;/span&gt;&lt;span style=&quot;color: #8be9fd;&quot;&gt;vector&lt;/span&gt;&amp;lt;&lt;span style=&quot;color: #ff79c6;&quot;&gt;char&lt;/span&gt;&amp;gt; &lt;span style=&quot;color: #50fa7b;&quot;&gt;numberToVector&lt;/span&gt;(&lt;span style=&quot;color: #8be9fd;font-style: italic;&quot;&gt;uint32_t&lt;/span&gt; &lt;span style=&quot;color: #ffb86c;font-style: italic;&quot;&gt;number&lt;/span&gt;)&lt;/div&gt;" style="text;html=1;align=center;verticalAlign=middle;resizable=0;points=[];autosize=1;strokeColor=none;fillColor=none;" vertex="1" parent="3">
                    <mxGeometry y="270" width="400" height="30" as="geometry"/>
                </mxCell>
                <mxCell id="36" value="&lt;div style=&quot;color: rgb(248, 248, 242); background-color: rgb(40, 42, 54); font-family: Consolas, &amp;quot;Courier New&amp;quot;, monospace; font-size: 14px; line-height: 19px;&quot;&gt;&lt;span style=&quot;color: #ff79c6;&quot;&gt;void&lt;/span&gt; &lt;span style=&quot;color: #50fa7b;&quot;&gt;findSmallest&lt;/span&gt;(&lt;span style=&quot;color: #ff79c6;&quot;&gt;int&amp;amp;&lt;/span&gt; &lt;span style=&quot;color: #ffb86c;font-style: italic;&quot;&gt;a&lt;/span&gt;, &lt;span style=&quot;color: #ff79c6;&quot;&gt;int&amp;amp;&lt;/span&gt; &lt;span style=&quot;color: #ffb86c;font-style: italic;&quot;&gt;b&lt;/span&gt;)&lt;/div&gt;" style="text;html=1;align=center;verticalAlign=middle;resizable=0;points=[];autosize=1;strokeColor=none;fillColor=none;" vertex="1" parent="3">
                    <mxGeometry y="300" width="280" height="30" as="geometry"/>
                </mxCell>
                <mxCell id="37" value="&lt;div style=&quot;color: rgb(248, 248, 242); background-color: rgb(40, 42, 54); font-family: Consolas, &amp;quot;Courier New&amp;quot;, monospace; font-size: 14px; line-height: 19px;&quot;&gt;&lt;span style=&quot;color: #ff79c6;&quot;&gt;void&lt;/span&gt; &lt;span style=&quot;color: #50fa7b;&quot;&gt;loop&lt;/span&gt;()&lt;/div&gt;" style="text;html=1;align=center;verticalAlign=middle;resizable=0;points=[];autosize=1;strokeColor=none;fillColor=none;" vertex="1" parent="3">
                    <mxGeometry y="330" width="110" height="30" as="geometry"/>
                </mxCell>
                <mxCell id="4" value="RSA" style="swimlane;whiteSpace=wrap;html=1;" vertex="1" parent="1">
                    <mxGeometry x="10" y="540" width="400" height="260" as="geometry"/>
                </mxCell>
                <mxCell id="19" value="&lt;div style=&quot;color: rgb(248, 248, 242); background-color: rgb(40, 42, 54); font-family: Consolas, &amp;quot;Courier New&amp;quot;, monospace; font-size: 14px; line-height: 19px;&quot;&gt;&lt;span style=&quot;color: #8be9fd;font-style: italic;&quot;&gt;uint32_t&lt;/span&gt; &lt;span style=&quot;color: #50fa7b;&quot;&gt;gcd&lt;/span&gt;(&lt;span style=&quot;color: #8be9fd;font-style: italic;&quot;&gt;uint32_t&lt;/span&gt; &lt;span style=&quot;color: #ffb86c;font-style: italic;&quot;&gt;a&lt;/span&gt;, &lt;span style=&quot;color: #8be9fd;font-style: italic;&quot;&gt;uint32_t&lt;/span&gt; &lt;span style=&quot;color: #ffb86c;font-style: italic;&quot;&gt;b&lt;/span&gt;)&lt;/div&gt;" style="text;html=1;align=center;verticalAlign=middle;resizable=0;points=[];autosize=1;strokeColor=none;fillColor=none;" vertex="1" parent="4">
                    <mxGeometry y="25" width="300" height="30" as="geometry"/>
                </mxCell>
                <mxCell id="20" value="&lt;div style=&quot;color: rgb(248, 248, 242); background-color: rgb(40, 42, 54); font-family: Consolas, &amp;quot;Courier New&amp;quot;, monospace; font-size: 14px; line-height: 19px;&quot;&gt;&lt;span style=&quot;color: #8be9fd;font-style: italic;&quot;&gt;uint32_t&lt;/span&gt; &lt;span style=&quot;color: #50fa7b;&quot;&gt;num_gen&lt;/span&gt;(&lt;span style=&quot;color: #ff79c6;&quot;&gt;int&lt;/span&gt; &lt;span style=&quot;color: #ffb86c;font-style: italic;&quot;&gt;bits&lt;/span&gt;)&lt;/div&gt;" style="text;html=1;align=center;verticalAlign=middle;resizable=0;points=[];autosize=1;strokeColor=none;fillColor=none;" vertex="1" parent="4">
                    <mxGeometry y="55" width="220" height="30" as="geometry"/>
                </mxCell>
                <mxCell id="21" value="&lt;div style=&quot;color: rgb(248, 248, 242); background-color: rgb(40, 42, 54); font-family: Consolas, &amp;quot;Courier New&amp;quot;, monospace; font-size: 14px; line-height: 19px;&quot;&gt;&lt;span style=&quot;color: #8be9fd;font-style: italic;&quot;&gt;int64_t&lt;/span&gt; &lt;span style=&quot;color: #50fa7b;&quot;&gt;reduce_mod&lt;/span&gt;(&lt;span style=&quot;color: #8be9fd;font-style: italic;&quot;&gt;int64_t&lt;/span&gt; &lt;span style=&quot;color: #ffb86c;font-style: italic;&quot;&gt;x&lt;/span&gt;, &lt;span style=&quot;color: #8be9fd;font-style: italic;&quot;&gt;uint32_t&lt;/span&gt; &lt;span style=&quot;color: #ffb86c;font-style: italic;&quot;&gt;m&lt;/span&gt;)&lt;/div&gt;" style="text;html=1;align=center;verticalAlign=middle;resizable=0;points=[];autosize=1;strokeColor=none;fillColor=none;" vertex="1" parent="4">
                    <mxGeometry y="80" width="340" height="30" as="geometry"/>
                </mxCell>
                <mxCell id="22" value="&lt;div style=&quot;color: rgb(248, 248, 242); background-color: rgb(40, 42, 54); font-family: Consolas, &amp;quot;Courier New&amp;quot;, monospace; font-size: 14px; line-height: 19px;&quot;&gt;&lt;span style=&quot;color: #8be9fd;font-style: italic;&quot;&gt;uint32_t&lt;/span&gt; &lt;span style=&quot;color: #50fa7b;&quot;&gt;generate_d&lt;/span&gt;(&lt;span style=&quot;color: #8be9fd;font-style: italic;&quot;&gt;uint32_t&lt;/span&gt; &lt;span style=&quot;color: #ffb86c;font-style: italic;&quot;&gt;e&lt;/span&gt;, &lt;span style=&quot;color: #8be9fd;font-style: italic;&quot;&gt;uint32_t&lt;/span&gt; &lt;span style=&quot;color: #ffb86c;font-style: italic;&quot;&gt;phi_n&lt;/span&gt;)&lt;/div&gt;" style="text;html=1;align=center;verticalAlign=middle;resizable=0;points=[];autosize=1;strokeColor=none;fillColor=none;" vertex="1" parent="4">
                    <mxGeometry y="110" width="390" height="30" as="geometry"/>
                </mxCell>
                <mxCell id="23" value="&lt;div style=&quot;color: rgb(248, 248, 242); background-color: rgb(40, 42, 54); font-family: Consolas, &amp;quot;Courier New&amp;quot;, monospace; font-size: 14px; line-height: 19px;&quot;&gt;&lt;span style=&quot;color: #8be9fd;font-style: italic;&quot;&gt;uint32_t&lt;/span&gt; &lt;span style=&quot;color: #50fa7b;&quot;&gt;generate_e&lt;/span&gt;(&lt;span style=&quot;color: #8be9fd;font-style: italic;&quot;&gt;uint32_t&lt;/span&gt; &lt;span style=&quot;color: #ffb86c;font-style: italic;&quot;&gt;phi_n&lt;/span&gt;, &lt;span style=&quot;color: #ff79c6;&quot;&gt;int&lt;/span&gt; &lt;span style=&quot;color: #ffb86c;font-style: italic;&quot;&gt;bits&lt;/span&gt;)&lt;/div&gt;" style="text;html=1;align=center;verticalAlign=middle;resizable=0;points=[];autosize=1;strokeColor=none;fillColor=none;" vertex="1" parent="4">
                    <mxGeometry y="140" width="370" height="30" as="geometry"/>
                </mxCell>
                <mxCell id="24" value="&lt;div style=&quot;color: rgb(248, 248, 242); background-color: rgb(40, 42, 54); font-family: Consolas, &amp;quot;Courier New&amp;quot;, monospace; font-size: 14px; line-height: 19px;&quot;&gt;&lt;span style=&quot;color: #8be9fd;font-style: italic;&quot;&gt;uint32_t&lt;/span&gt; &lt;span style=&quot;color: #50fa7b;&quot;&gt;generate_d&lt;/span&gt;(&lt;span style=&quot;color: #8be9fd;font-style: italic;&quot;&gt;uint32_t&lt;/span&gt; &lt;span style=&quot;color: #ffb86c;font-style: italic;&quot;&gt;e&lt;/span&gt;, &lt;span style=&quot;color: #8be9fd;font-style: italic;&quot;&gt;uint32_t&lt;/span&gt; &lt;span style=&quot;color: #ffb86c;font-style: italic;&quot;&gt;phi_n&lt;/span&gt;)&lt;/div&gt;" style="text;html=1;align=center;verticalAlign=middle;resizable=0;points=[];autosize=1;strokeColor=none;fillColor=none;" vertex="1" parent="4">
                    <mxGeometry y="170" width="390" height="30" as="geometry"/>
                </mxCell>
                <mxCell id="25" value="&lt;div style=&quot;color: rgb(248, 248, 242); background-color: rgb(40, 42, 54); font-family: Consolas, &amp;quot;Courier New&amp;quot;, monospace; font-size: 14px; line-height: 19px;&quot;&gt;&lt;span style=&quot;color: #ff79c6;&quot;&gt;void&lt;/span&gt; &lt;span style=&quot;color: #50fa7b;&quot;&gt;setKeys&lt;/span&gt;(&lt;span style=&quot;color: #8be9fd;font-style: italic;&quot;&gt;uint32_t&lt;/span&gt; &lt;span style=&quot;color: #ffb86c;font-style: italic;&quot;&gt;p&lt;/span&gt;, &lt;span style=&quot;color: #8be9fd;font-style: italic;&quot;&gt;uint32_t&lt;/span&gt; &lt;span style=&quot;color: #ffb86c;font-style: italic;&quot;&gt;q&lt;/span&gt;, &lt;span style=&quot;color: #ff79c6;&quot;&gt;int&lt;/span&gt; &lt;span style=&quot;color: #ffb86c;font-style: italic;&quot;&gt;bits&lt;/span&gt;)&lt;/div&gt;" style="text;html=1;align=center;verticalAlign=middle;resizable=0;points=[];autosize=1;strokeColor=none;fillColor=none;" vertex="1" parent="4">
                    <mxGeometry y="200" width="380" height="30" as="geometry"/>
                </mxCell>
                <mxCell id="5" value="Miller_Rabin" style="swimlane;whiteSpace=wrap;html=1;" vertex="1" parent="1">
                    <mxGeometry x="320" y="820" width="540" height="90" as="geometry"/>
                </mxCell>
                <mxCell id="17" value="&lt;div style=&quot;color: rgb(248, 248, 242); background-color: rgb(40, 42, 54); font-family: Consolas, &amp;quot;Courier New&amp;quot;, monospace; font-size: 14px; line-height: 19px;&quot;&gt;&lt;span style=&quot;color: #ff79c6;&quot;&gt;bool&lt;/span&gt; &lt;span style=&quot;color: #50fa7b;&quot;&gt;MillerRabinFct&lt;/span&gt;(&lt;span style=&quot;color: #8be9fd;font-style: italic;&quot;&gt;uint32_t&lt;/span&gt; &lt;span style=&quot;color: #ffb86c;font-style: italic;&quot;&gt;n&lt;/span&gt;)&lt;/div&gt;" style="text;html=1;align=center;verticalAlign=middle;resizable=0;points=[];autosize=1;strokeColor=none;fillColor=none;" vertex="1" parent="5">
                    <mxGeometry y="30" width="260" height="30" as="geometry"/>
                </mxCell>
                <mxCell id="18" value="&lt;div style=&quot;color: rgb(248, 248, 242); background-color: rgb(40, 42, 54); font-family: Consolas, &amp;quot;Courier New&amp;quot;, monospace; font-size: 14px; line-height: 19px;&quot;&gt;&lt;span style=&quot;color: #8be9fd;font-style: italic;&quot;&gt;uint32_t&lt;/span&gt; &lt;span style=&quot;color: #50fa7b;&quot;&gt;modular_pow&lt;/span&gt;(&lt;span style=&quot;color: #8be9fd;font-style: italic;&quot;&gt;uint32_t&lt;/span&gt; &lt;span style=&quot;color: #ffb86c;font-style: italic;&quot;&gt;base&lt;/span&gt;, &lt;span style=&quot;color: #8be9fd;font-style: italic;&quot;&gt;uint32_t&lt;/span&gt; &lt;span style=&quot;color: #ffb86c;font-style: italic;&quot;&gt;exponent&lt;/span&gt;, &lt;span style=&quot;color: #8be9fd;font-style: italic;&quot;&gt;uint32_t&lt;/span&gt; &lt;span style=&quot;color: #ffb86c;font-style: italic;&quot;&gt;mod&lt;/span&gt;)&lt;/div&gt;" style="text;html=1;align=center;verticalAlign=middle;resizable=0;points=[];autosize=1;strokeColor=none;fillColor=none;" vertex="1" parent="5">
                    <mxGeometry y="60" width="550" height="30" as="geometry"/>
                </mxCell>
            </root>
        </mxGraphModel>
    </diagram>
</mxfile>